<svg id="Group_6" data-name="Group 6" xmlns="http://www.w3.org/2000/svg" width="49.986" height="49.999" viewBox="0 0 49.986 49.999">
  <path id="Path_16" data-name="Path 16" d="M388.335,160h-11.7a6.054,6.054,0,0,0-6.047,6.047v11.7a6.054,6.054,0,0,0,6.047,6.047h11.7a6.054,6.054,0,0,0,6.047-6.047v-11.7A6.054,6.054,0,0,0,388.335,160ZM382.6,179.115a7.219,7.219,0,1,1,7.22-7.219A7.22,7.22,0,0,1,382.6,179.115Zm7.643-13.21a1.717,1.717,0,1,1,1.724-1.71A1.718,1.718,0,0,1,390.242,165.906Zm-7.643,1.37a4.62,4.62,0,1,0,4.634,4.62A4.631,4.631,0,0,0,382.6,167.276Z" transform="translate(-357.493 -146.932)" fill="#fff"/>
  <path id="Path_17" data-name="Path 17" d="M386.313,150.75a25,25,0,1,0,24.993,25.007A25,25,0,0,0,386.313,150.75Zm14.651,30.813a8.8,8.8,0,0,1-8.8,8.8h-11.7a8.8,8.8,0,0,1-8.8-8.8v-11.7a8.8,8.8,0,0,1,8.8-8.8h11.7a8.8,8.8,0,0,1,8.8,8.8Z" transform="translate(-361.32 -150.75)" fill="#fff"/>
</svg>
