<svg id="Group_3" data-name="Group 3" xmlns="http://www.w3.org/2000/svg" width="49.999" height="49.999" viewBox="0 0 49.999 49.999">
  <path id="Path_2" data-name="Path 2" d="M399.434,291.81v1.167a.322.322,0,0,1-.321.325h-4.662a.331.331,0,0,1-.221-.092,0,0,0,0,1,0,0s0,0-.008,0a.329.329,0,0,1-.087-.225v-7.246a.321.321,0,0,1,.321-.321h1.167a.322.322,0,0,1,.325.321v5.754h3.171A.322.322,0,0,1,399.434,291.81Z" transform="translate(-380.301 -265.506)" fill="#fff"/>
  <path id="Path_3" data-name="Path 3" d="M411.072,285.731v7.246a.325.325,0,0,1-.321.325h-1.167a.325.325,0,0,1-.325-.325v-7.246a.322.322,0,0,1,.325-.321h1.167A.321.321,0,0,1,411.072,285.731Z" transform="translate(-389.127 -265.506)" fill="#fff"/>
  <path id="Path_4" data-name="Path 4" d="M423.226,285.731v7.246a.325.325,0,0,1-.325.325h-1.162a.269.269,0,0,1-.083-.013h-.008s-.012,0-.021-.008,0,0-.008,0-.013,0-.017,0a.021.021,0,0,0-.017-.008s0,0-.008,0a.092.092,0,0,0-.021-.012v0a.252.252,0,0,1-.083-.079l-3.325-4.492v4.3a.325.325,0,0,1-.325.325h-1.167a.325.325,0,0,1-.325-.325v-7.246a.322.322,0,0,1,.325-.321h1.212a.015.015,0,0,0,.013,0,.038.038,0,0,1,.021,0s.008,0,.008,0a.184.184,0,0,1,.021,0s.008,0,.013,0,.013,0,.017.008a.015.015,0,0,1,.008,0c.008,0,.013.008.021.008s0,0,.008.008.012.008.017.013,0,0,.008,0,.013.008.017.017,0,0,.008,0a.091.091,0,0,1,.017.021h0c.008.013.017.021.025.033l3.321,4.483v-4.3a.322.322,0,0,1,.325-.321H422.9A.322.322,0,0,1,423.226,285.731Z" transform="translate(-393.251 -265.506)" fill="#fff"/>
  <path id="Path_5" data-name="Path 5" d="M440.908,285.731V286.9a.325.325,0,0,1-.325.325h-3.167v1.225h3.167a.325.325,0,0,1,.325.325v1.167a.322.322,0,0,1-.325.321h-3.167v1.225h3.167a.325.325,0,0,1,.325.325v1.167a.325.325,0,0,1-.325.325h-4.658a.333.333,0,0,1-.225-.092l-.008-.008a.333.333,0,0,1-.092-.225v-7.246a.323.323,0,0,1,.092-.221s0,0,0-.008a0,0,0,0,0,0,0,.33.33,0,0,1,.225-.088h4.658A.322.322,0,0,1,440.908,285.731Z" transform="translate(-404.492 -265.506)" fill="#fff"/>
  <path id="Path_6" data-name="Path 6" d="M385.94,237.64a25,25,0,1,0,25,25A25,25,0,0,0,385.94,237.64Zm15.75,27.775a14.432,14.432,0,0,1-2.683,4.025c-3.487,4.017-11.291,8.908-13.066,9.654s-1.513-.475-1.437-.9l.237-1.425a3.44,3.44,0,0,0-.054-1.5c-.187-.467-.925-.7-1.467-.821-7.992-1.058-13.9-6.646-13.9-13.312,0-7.442,7.458-13.5,16.625-13.5s16.629,6.054,16.629,13.5A10.657,10.657,0,0,1,401.689,265.415Z" transform="translate(-360.94 -237.64)" fill="#fff"/>
  <g id="TYPE_A" data-name="TYPE A" transform="translate(13.829 19.904)">
    <g id="Group_2" data-name="Group 2" transform="translate(0)">
      <path id="Path_7" data-name="Path 7" d="M399.434,291.81v1.167a.322.322,0,0,1-.321.325h-4.662a.331.331,0,0,1-.221-.092,0,0,0,0,1,0,0s0,0-.008,0a.329.329,0,0,1-.087-.225v-7.246a.321.321,0,0,1,.321-.321h1.167a.322.322,0,0,1,.325.321v5.754h3.171A.322.322,0,0,1,399.434,291.81Z" transform="translate(-394.13 -285.41)" fill="#fff"/>
      <path id="Path_8" data-name="Path 8" d="M411.072,285.731v7.246a.325.325,0,0,1-.321.325h-1.167a.325.325,0,0,1-.325-.325v-7.246a.322.322,0,0,1,.325-.321h1.167A.321.321,0,0,1,411.072,285.731Z" transform="translate(-402.956 -285.41)" fill="#fff"/>
      <path id="Path_9" data-name="Path 9" d="M423.226,285.731v7.246a.325.325,0,0,1-.325.325h-1.162a.269.269,0,0,1-.083-.013h-.008s-.012,0-.021-.008,0,0-.008,0-.013,0-.017,0a.021.021,0,0,0-.017-.008s0,0-.008,0a.092.092,0,0,0-.021-.012v0a.252.252,0,0,1-.083-.079l-3.325-4.492v4.3a.325.325,0,0,1-.325.325h-1.167a.325.325,0,0,1-.325-.325v-7.246a.322.322,0,0,1,.325-.321h1.212a.015.015,0,0,0,.013,0,.038.038,0,0,1,.021,0s.008,0,.008,0a.184.184,0,0,1,.021,0s.008,0,.013,0,.013,0,.017.008a.015.015,0,0,1,.008,0c.008,0,.013.008.021.008s0,0,.008.008.012.008.017.013,0,0,.008,0,.013.008.017.017,0,0,.008,0a.091.091,0,0,1,.017.021h0c.008.013.017.021.025.033l3.321,4.483v-4.3a.322.322,0,0,1,.325-.321H422.9A.322.322,0,0,1,423.226,285.731Z" transform="translate(-407.08 -285.41)" fill="#fff"/>
      <path id="Path_10" data-name="Path 10" d="M437.417,287.223v1.225h3.167a.325.325,0,0,1,.325.325v1.167a.322.322,0,0,1-.325.321h-3.167v1.225h3.167a.325.325,0,0,1,.325.325v1.167a.325.325,0,0,1-.325.325h-4.658a.333.333,0,0,1-.225-.092l-.008-.008a.333.333,0,0,1-.092-.225v-7.246a.323.323,0,0,1,.092-.221s0,0,0-.008a0,0,0,0,0,0,0,.33.33,0,0,1,.225-.088h4.658a.322.322,0,0,1,.325.321V286.9a.325.325,0,0,1-.325.325Z" transform="translate(-418.321 -285.41)" fill="#fff"/>
      <g id="Group_1" data-name="Group 1">
        <path id="Path_11" data-name="Path 11" d="M411.072,285.731v7.246a.325.325,0,0,1-.321.325h-1.167a.325.325,0,0,1-.325-.325v-7.246a.322.322,0,0,1,.325-.321h1.167A.321.321,0,0,1,411.072,285.731Z" transform="translate(-402.956 -285.41)" fill="#fff"/>
        <path id="Path_12" data-name="Path 12" d="M423.226,285.731v7.246a.325.325,0,0,1-.325.325h-1.162a.269.269,0,0,1-.083-.013h-.008s-.012,0-.021-.008,0,0-.008,0-.013,0-.017,0a.021.021,0,0,0-.017-.008s0,0-.008,0a.092.092,0,0,0-.021-.012v0a.252.252,0,0,1-.083-.079l-3.325-4.492v4.3a.325.325,0,0,1-.325.325h-1.167a.325.325,0,0,1-.325-.325v-7.246a.322.322,0,0,1,.325-.321h1.212a.015.015,0,0,0,.013,0,.038.038,0,0,1,.021,0s.008,0,.008,0a.184.184,0,0,1,.021,0s.008,0,.013,0,.013,0,.017.008a.015.015,0,0,1,.008,0c.008,0,.013.008.021.008s0,0,.008.008.012.008.017.013,0,0,.008,0,.013.008.017.017,0,0,.008,0a.091.091,0,0,1,.017.021h0c.008.013.017.021.025.033l3.321,4.483v-4.3a.322.322,0,0,1,.325-.321H422.9A.322.322,0,0,1,423.226,285.731Z" transform="translate(-407.08 -285.41)" fill="#fff"/>
        <path id="Path_13" data-name="Path 13" d="M399.434,291.81v1.167a.322.322,0,0,1-.321.325h-4.662a.331.331,0,0,1-.221-.092,0,0,0,0,1,0,0s0,0-.008,0a.329.329,0,0,1-.087-.225v-7.246a.321.321,0,0,1,.321-.321h1.167a.322.322,0,0,1,.325.321v5.754h3.171A.322.322,0,0,1,399.434,291.81Z" transform="translate(-394.13 -285.41)" fill="#fff"/>
        <path id="Path_14" data-name="Path 14" d="M437.417,287.223v1.225h3.167a.325.325,0,0,1,.325.325v1.167a.322.322,0,0,1-.325.321h-3.167v1.225h3.167a.325.325,0,0,1,.325.325v1.167a.325.325,0,0,1-.325.325h-4.658a.333.333,0,0,1-.225-.092l-.008-.008a.333.333,0,0,1-.092-.225v-7.246a.323.323,0,0,1,.092-.221s0,0,0-.008a0,0,0,0,0,0,0,.33.33,0,0,1,.225-.088h4.658a.322.322,0,0,1,.325.321V286.9a.325.325,0,0,1-.325.325Z" transform="translate(-418.321 -285.41)" fill="#fff"/>
      </g>
    </g>
  </g>
</svg>
