<svg id="Group_7" data-name="Group 7" xmlns="http://www.w3.org/2000/svg" width="50" height="49.999" viewBox="0 0 50 49.999">
  <path id="Path_18" data-name="Path 18" d="M386.32,205.34a25,25,0,1,0,25,25A25,25,0,0,0,386.32,205.34Zm13.92,16.45a.708.708,0,0,1-.141.438,10.664,10.664,0,0,1-2.176,2.261c-.127.1-.339.2-.339.367,0,4.508-1.145,9-4.423,12.267-4.183,4.155-10.458,5.285-16.026,3.745a15.4,15.4,0,0,1-3.095-1.244c-.325-.17-.65-.367-.961-.565-.085-.071-.141-.127-.071-.17s.113-.042.367,0a11,11,0,0,0,4.635-.594c.806-.283,2.544-.848,3.053-1.611a.109.109,0,0,1,.028-.042c-.2-.042-.4-.042-.608-.085a5.947,5.947,0,0,1-4.466-3.745c-.057-.141,0-.226.155-.184a6.7,6.7,0,0,0,2.134-.071,3.061,3.061,0,0,1-.721-.226,5.768,5.768,0,0,1-3.561-4.593A3.242,3.242,0,0,1,374,227.1c.014-.155.071-.2.212-.113a5.755,5.755,0,0,0,2.162.608c-.24-.2-.466-.4-.692-.608-1.653-1.569-2.289-4.748-.961-6.741.1-.155.17-.155.3,0,3.024,3.434,6.755,5.045,11.235,5.709.127.028.141,0,.113-.127a5.96,5.96,0,0,1,.071-2.346,5.65,5.65,0,0,1,1.1-2.219,5.725,5.725,0,0,1,1.865-1.526,5.918,5.918,0,0,1,2.3-.65,5.541,5.541,0,0,1,2.431.4,6.083,6.083,0,0,1,1.583.961,2.863,2.863,0,0,1,.283.3.212.212,0,0,0,.226.056,14.269,14.269,0,0,0,3.265-1.244.152.152,0,0,1,.155-.014c.042.028.028.1,0,.141a5.074,5.074,0,0,1-.919,1.668c-.254.325-.9,1.131-1.357,1.2a11.587,11.587,0,0,0,2.756-.777c.113-.057.113-.085.113,0Z" transform="translate(-361.32 -205.34)" fill="#fff"/>
</svg>
