<svg xmlns="http://www.w3.org/2000/svg" width="150" height="60.406" viewBox="0 0 150 60.406"><g transform="translate(-240 -59.594)"><g transform="translate(215.559 -971.076)"><ellipse cx="27.476" cy="27.335" rx="27.476" ry="27.335" transform="translate(27.619 1033.877)" fill="#fff"/><g transform="translate(24.441 1030.67)"><path d="M52.81,1087.315l-2.116-4.008c-.178-.378-.255-.4-.258-.4s-.078.022-.268.4l-2.311,4.371c-.079.174-.049.217-.049.217s.048.064.369.064l.075,0,.635.008h3.088l.7-.006c.327,0,.37-.056.378-.064s.026-.042-.056-.227Z" transform="translate(-35.847 -1056.31)" fill="#32b5ff"/><path d="M54.746,1030.67a30.2,30.2,0,1,0,30.391,30.147A30.272,30.272,0,0,0,54.746,1030.67Zm-8.056,36.19a.571.571,0,0,1-.474.147H44.238l-1.309-2.464H35.121l-1.307,2.464h-1.99a.559.559,0,0,1-.461-.137.328.328,0,0,1-.041-.3l7-13.051c.176-.376.423-.593.692-.593.189,0,.468.1.71.6l6.973,12.99A.377.377,0,0,1,46.689,1066.86Zm5.447.147c-3.35,0-5.377-1.816-5.43-4.857a.419.419,0,0,1,.409-.43h1.713a.42.42,0,0,1,.411.425c0,2.313,1.9,2.66,3.037,2.66,2.326,0,2.506-1.4,2.506-1.833a1.421,1.421,0,0,0-.942-1.473,21.138,21.138,0,0,0-2.076-.626c-.489-.131-1.042-.279-1.674-.46a3.458,3.458,0,0,1-2.9-3.486c0-2.778,2.472-4.04,4.772-4.04,2.49,0,5,1.348,5,4.368a.415.415,0,0,1-.416.422h-1.7a.412.412,0,0,1-.412-.422c-.09-1.435-.948-2.161-2.555-2.161-.5,0-2.161.109-2.161,1.552,0,.772.453,1.276,1.383,1.543.181.046,2.991.813,3.649,1.01a3.638,3.638,0,0,1,2.57,3.519C57.317,1065.884,54.527,1067.007,52.137,1067.007Zm9.238-.415a.408.408,0,0,1-.409.415H59.257a.41.41,0,0,1-.412-.415v-12.658a.416.416,0,0,1,.412-.417h1.708a.411.411,0,0,1,.409.417Zm16.38.415H75.766l-1.3-2.464H66.654l-1.307,2.464H63.36c-.212,0-.372-.024-.461-.137a.319.319,0,0,1-.04-.3l7.006-13.051c.175-.376.421-.593.687-.593.192,0,.468.1.711.6l6.973,12.99a.362.362,0,0,1-.014.344A.572.572,0,0,1,77.754,1067.007Z" transform="translate(-24.441 -1030.67)" fill="#32b5ff"/><path d="M112.315,1083.307c-.177-.378-.248-.4-.253-.4s-.082.022-.276.4l-2.11,4.009-.195.362c-.078.174-.05.217-.05.217s.05.064.371.064l.074,0,.634.008H113.6l.7-.006c.328,0,.374-.056.378-.064s.027-.042-.055-.227Z" transform="translate(-65.932 -1056.31)" fill="#32b5ff"/><path d="M150.7,1090.974a.221.221,0,0,1-.213.229H149.03a.224.224,0,0,1-.214-.229v-10.588a.224.224,0,0,1,.214-.229h1.458a.222.222,0,0,1,.213.229Z" transform="translate(-85.464 -1054.975)" fill="#231f20"/><path d="M204.548,1080.157h-1.462a.222.222,0,0,0-.215.229v6.122c0,2.039-1.021,3.074-2.7,3.074s-2.709-1.1-2.709-3.151v-6.046a.223.223,0,0,0-.211-.229h-1.462a.223.223,0,0,0-.214.229v6.122c0,3.2,1.782,4.858,4.568,4.858,2.806,0,4.612-1.657,4.612-4.949v-6.031a.219.219,0,0,0-.209-.229Z" transform="translate(-108.428 -1054.975)" fill="#231f20"/><path d="M311.023,1081.895a.224.224,0,0,0,.223-.217v-1.3a.221.221,0,0,0-.223-.221h-7.6a.225.225,0,0,0-.213.229v10.588a.224.224,0,0,0,.213.229l7.6-.01a.224.224,0,0,0,.223-.219v-1.3a.223.223,0,0,0-.223-.221H305.1v-2.959h5.156a.218.218,0,0,0,.218-.222v-1.3a.218.218,0,0,0-.218-.221H305.1v-2.86Z" transform="translate(-161.245 -1054.975)" fill="#231f20"/><path d="M183.454,1084.943c-.531-.17-2.791-.8-2.946-.852a1.436,1.436,0,0,1-1.215-1.418c0-1.11,1.041-1.436,1.868-1.436a1.919,1.919,0,0,1,2.2,1.947.212.212,0,0,0,.2.219h1.381a.206.206,0,0,0,.2-.219c0-2.3-1.783-3.519-3.909-3.519-1.85,0-3.732,1.036-3.732,3.245a2.752,2.752,0,0,0,2.257,2.787c1.4.418,2.331.614,3.04.911a1.294,1.294,0,0,1,.849,1.357c0,.831-.589,1.664-2.156,1.664-1.432,0-2.593-.662-2.593-2.355a.209.209,0,0,0-.2-.224h-1.387a.21.21,0,0,0-.2.224c.041,2.725,1.924,3.927,4.255,3.927,2.032,0,4.059-.988,4.059-3.452a2.9,2.9,0,0,0-1.983-2.807Z" transform="translate(-99.368 -1054.735)" fill="#231f20"/><path d="M165.745,1080.157H164.3a.227.227,0,0,0-.211.229v7.647l-5.7-7.8a.206.206,0,0,0-.156-.077H156.82a.221.221,0,0,0-.212.229v10.588a.222.222,0,0,0,.212.23h1.418a.219.219,0,0,0,.208-.23v-7.623l5.682,7.745a.1.1,0,0,0,.032.04.214.214,0,0,0,.144.069h1.442a.222.222,0,0,0,.211-.23v-10.588a.222.222,0,0,0-.211-.229Z" transform="translate(-89.304 -1054.975)" fill="#231f20"/><path d="M270.068,1080.157h-1.443a.224.224,0,0,0-.215.229v7.647l-5.7-7.8a.218.218,0,0,0-.16-.077H261.14a.229.229,0,0,0-.221.229v10.588a.229.229,0,0,0,.221.23h1.415a.216.216,0,0,0,.2-.23v-7.623l5.685,7.745a.127.127,0,0,0,.027.04.21.21,0,0,0,.153.069h1.443a.218.218,0,0,0,.2-.23v-10.588a.218.218,0,0,0-.2-.229Z" transform="translate(-140.596 -1054.975)" fill="#231f20"/><path d="M225.542,1090.981l-2.744-3.965a3.294,3.294,0,0,0,2.555-3.343v-.036a3.4,3.4,0,0,0-.886-2.378,4.27,4.27,0,0,0-3.1-1.1H216.8a.225.225,0,0,0-.218.228v10.588a.224.224,0,0,0,.218.229h1.461a.22.22,0,0,0,.21-.229v-3.629h2.362l2.637,3.846h1.835C225.559,1091.191,225.621,1091.143,225.542,1090.981Zm-7.07-5.354v-3.7h2.744c1.394,0,2.225.643,2.225,1.825v.033c0,1.116-.859,1.845-2.212,1.845Z" transform="translate(-118.736 -1054.975)" fill="#231f20"/><path d="M247.814,1091.016l-5.306-10.452c-.115-.272-.265-.407-.413-.407s-.3.136-.412.407l-5.312,10.452c-.033.14.037.187.268.187h1.433l.986-1.981h6.072l.991,1.981h1.434C247.782,1091.2,247.854,1091.156,247.814,1091.016Zm-4.071-3.332h-3.292c-.434.009-.549-.09-.41-.413l1.751-3.5c.122-.243.214-.375.3-.388.092.013.184.145.3.388l1.605,3.2.145.3C244.29,1087.595,244.174,1087.693,243.743,1087.684Z" transform="translate(-128.452 -1054.975)" fill="#231f20"/><path d="M290.358,1088.308a.216.216,0,0,0-.308,0s0,0-.006,0a3.955,3.955,0,0,1-2.875,1.264,3.9,3.9,0,0,1,0-7.754,3.947,3.947,0,0,1,2.875,1.262h.006a.231.231,0,0,0,.308,0l.894-.947a.22.22,0,0,0,0-.293c0-.01,0-.015-.007-.021a5.337,5.337,0,0,0-4.138-1.766,5.411,5.411,0,0,0-5.391,5.609v.062a5.41,5.41,0,0,0,5.391,5.607,5.346,5.346,0,0,0,4.138-1.759.035.035,0,0,0,.007-.025.222.222,0,0,0,0-.3Z" transform="translate(-150.75 -1054.924)" fill="#231f20"/></g></g></g></svg>